# xmcd
#
# Track frame offsets: 
#        150
#        20587
#        36379
#        52148
#        64978
#        82199
#        95790
#        113789
#        129246
#        146555
#        159882
#        181595
#        198139
#
# Disc length: 2936 seconds
#
# Revision: 0
# Processed by: cddbd v1.5.2PL0 Copyright (c) Steve Scherf et al.
# Submitted via: ExactAudioCopy v1.0b3
#
DISCID=b30b760d
DTITLE=Futura - Luis Laserpower
DYEAR=2013
DGENRE=Rock
TTITLE0=Lass los
TTITLE1=Mond
TTITLE2=Koordinaten
TTITLE3=Phillipe Petit
TTITLE4=London brennt
TTITLE5='99
TTITLE6=Perfekt
TTITLE7=Überall
TTITLE8=L.I.S.A.
TTITLE9=Glück
TTITLE10=Die Hoffnung stirbt zuletz
TTITLE11=Weisst du noch
TTITLE12=Träume
EXTD=
EXTT0=
EXTT1=
EXTT2=
EXTT3=
EXTT4=
EXTT5=
EXTT6=
EXTT7=
EXTT8=
EXTT9=
EXTT10=
EXTT11=
EXTT12=
PLAYORDER=
